<svg xmlns="http://www.w3.org/2000/svg" viewBox="12 12 298 178" width="298" height="178">
<defs><clipPath id="c"><rect x="6" y="6" width="310" height="190" rx="18"/></clipPath></defs>
<rect x="14" y="14" width="310" height="190" rx="18" fill="#1d1433"/>
<rect x="6" y="6" width="310" height="190" rx="18" fill="#fff3dc"/>
<g clip-path="url(#c)"><circle cx="20" cy="20" r="2" fill="#1d1433" opacity="0.08"/><circle cx="20" cy="42" r="2" fill="#1d1433" opacity="0.08"/><circle cx="20" cy="64" r="2" fill="#1d1433" opacity="0.08"/><circle cx="20" cy="86" r="2" fill="#1d1433" opacity="0.08"/><circle cx="20" cy="108" r="2" fill="#1d1433" opacity="0.08"/><circle cx="20" cy="130" r="2" fill="#1d1433" opacity="0.08"/><circle cx="20" cy="152" r="2" fill="#1d1433" opacity="0.08"/><circle cx="20" cy="174" r="2" fill="#1d1433" opacity="0.08"/><circle cx="20" cy="196" r="2" fill="#1d1433" opacity="0.08"/><circle cx="42" cy="20" r="2" fill="#1d1433" opacity="0.08"/><circle cx="42" cy="42" r="2" fill="#1d1433" opacity="0.08"/><circle cx="42" cy="64" r="2" fill="#1d1433" opacity="0.08"/><circle cx="42" cy="86" r="2" fill="#1d1433" opacity="0.08"/><circle cx="42" cy="108" r="2" fill="#1d1433" opacity="0.08"/><circle cx="42" cy="130" r="2" fill="#1d1433" opacity="0.08"/><circle cx="42" cy="152" r="2" fill="#1d1433" opacity="0.08"/><circle cx="42" cy="174" r="2" fill="#1d1433" opacity="0.08"/><circle cx="42" cy="196" r="2" fill="#1d1433" opacity="0.08"/><circle cx="64" cy="20" r="2" fill="#1d1433" opacity="0.08"/><circle cx="64" cy="42" r="2" fill="#1d1433" opacity="0.08"/><circle cx="64" cy="64" r="2" fill="#1d1433" opacity="0.08"/><circle cx="64" cy="86" r="2" fill="#1d1433" opacity="0.08"/><circle cx="64" cy="108" r="2" fill="#1d1433" opacity="0.08"/><circle cx="64" cy="130" r="2" fill="#1d1433" opacity="0.08"/><circle cx="64" cy="152" r="2" fill="#1d1433" opacity="0.08"/><circle cx="64" cy="174" r="2" fill="#1d1433" opacity="0.08"/><circle cx="64" cy="196" r="2" fill="#1d1433" opacity="0.08"/><circle cx="86" cy="20" r="2" fill="#1d1433" opacity="0.08"/><circle cx="86" cy="42" r="2" fill="#1d1433" opacity="0.08"/><circle cx="86" cy="64" r="2" fill="#1d1433" opacity="0.08"/><circle cx="86" cy="86" r="2" fill="#1d1433" opacity="0.08"/><circle cx="86" cy="108" r="2" fill="#1d1433" opacity="0.08"/><circle cx="86" cy="130" r="2" fill="#1d1433" opacity="0.08"/><circle cx="86" cy="152" r="2" fill="#1d1433" opacity="0.08"/><circle cx="86" cy="174" r="2" fill="#1d1433" opacity="0.08"/><circle cx="86" cy="196" r="2" fill="#1d1433" opacity="0.08"/><circle cx="108" cy="20" r="2" fill="#1d1433" opacity="0.08"/><circle cx="108" cy="42" r="2" fill="#1d1433" opacity="0.08"/><circle cx="108" cy="64" r="2" fill="#1d1433" opacity="0.08"/><circle cx="108" cy="86" r="2" fill="#1d1433" opacity="0.08"/><circle cx="108" cy="108" r="2" fill="#1d1433" opacity="0.08"/><circle cx="108" cy="130" r="2" fill="#1d1433" opacity="0.08"/><circle cx="108" cy="152" r="2" fill="#1d1433" opacity="0.08"/><circle cx="108" cy="174" r="2" fill="#1d1433" opacity="0.08"/><circle cx="108" cy="196" r="2" fill="#1d1433" opacity="0.08"/><circle cx="130" cy="20" r="2" fill="#1d1433" opacity="0.08"/><circle cx="130" cy="42" r="2" fill="#1d1433" opacity="0.08"/><circle cx="130" cy="64" r="2" fill="#1d1433" opacity="0.08"/><circle cx="130" cy="86" r="2" fill="#1d1433" opacity="0.08"/><circle cx="130" cy="108" r="2" fill="#1d1433" opacity="0.08"/><circle cx="130" cy="130" r="2" fill="#1d1433" opacity="0.08"/><circle cx="130" cy="152" r="2" fill="#1d1433" opacity="0.08"/><circle cx="130" cy="174" r="2" fill="#1d1433" opacity="0.08"/><circle cx="130" cy="196" r="2" fill="#1d1433" opacity="0.08"/><circle cx="152" cy="20" r="2" fill="#1d1433" opacity="0.08"/><circle cx="152" cy="42" r="2" fill="#1d1433" opacity="0.08"/><circle cx="152" cy="64" r="2" fill="#1d1433" opacity="0.08"/><circle cx="152" cy="86" r="2" fill="#1d1433" opacity="0.08"/><circle cx="152" cy="108" r="2" fill="#1d1433" opacity="0.08"/><circle cx="152" cy="130" r="2" fill="#1d1433" opacity="0.08"/><circle cx="152" cy="152" r="2" fill="#1d1433" opacity="0.08"/><circle cx="152" cy="174" r="2" fill="#1d1433" opacity="0.08"/><circle cx="152" cy="196" r="2" fill="#1d1433" opacity="0.08"/><circle cx="174" cy="20" r="2" fill="#1d1433" opacity="0.08"/><circle cx="174" cy="42" r="2" fill="#1d1433" opacity="0.08"/><circle cx="174" cy="64" r="2" fill="#1d1433" opacity="0.08"/><circle cx="174" cy="86" r="2" fill="#1d1433" opacity="0.08"/><circle cx="174" cy="108" r="2" fill="#1d1433" opacity="0.08"/><circle cx="174" cy="130" r="2" fill="#1d1433" opacity="0.08"/><circle cx="174" cy="152" r="2" fill="#1d1433" opacity="0.08"/><circle cx="174" cy="174" r="2" fill="#1d1433" opacity="0.08"/><circle cx="174" cy="196" r="2" fill="#1d1433" opacity="0.08"/><circle cx="196" cy="20" r="2" fill="#1d1433" opacity="0.08"/><circle cx="196" cy="42" r="2" fill="#1d1433" opacity="0.08"/><circle cx="196" cy="64" r="2" fill="#1d1433" opacity="0.08"/><circle cx="196" cy="86" r="2" fill="#1d1433" opacity="0.08"/><circle cx="196" cy="108" r="2" fill="#1d1433" opacity="0.08"/><circle cx="196" cy="130" r="2" fill="#1d1433" opacity="0.08"/><circle cx="196" cy="152" r="2" fill="#1d1433" opacity="0.08"/><circle cx="196" cy="174" r="2" fill="#1d1433" opacity="0.08"/><circle cx="196" cy="196" r="2" fill="#1d1433" opacity="0.08"/><circle cx="218" cy="20" r="2" fill="#1d1433" opacity="0.08"/><circle cx="218" cy="42" r="2" fill="#1d1433" opacity="0.08"/><circle cx="218" cy="64" r="2" fill="#1d1433" opacity="0.08"/><circle cx="218" cy="86" r="2" fill="#1d1433" opacity="0.08"/><circle cx="218" cy="108" r="2" fill="#1d1433" opacity="0.08"/><circle cx="218" cy="130" r="2" fill="#1d1433" opacity="0.08"/><circle cx="218" cy="152" r="2" fill="#1d1433" opacity="0.08"/><circle cx="218" cy="174" r="2" fill="#1d1433" opacity="0.08"/><circle cx="218" cy="196" r="2" fill="#1d1433" opacity="0.08"/><circle cx="240" cy="20" r="2" fill="#1d1433" opacity="0.08"/><circle cx="240" cy="42" r="2" fill="#1d1433" opacity="0.08"/><circle cx="240" cy="64" r="2" fill="#1d1433" opacity="0.08"/><circle cx="240" cy="86" r="2" fill="#1d1433" opacity="0.08"/><circle cx="240" cy="108" r="2" fill="#1d1433" opacity="0.08"/><circle cx="240" cy="130" r="2" fill="#1d1433" opacity="0.08"/><circle cx="240" cy="152" r="2" fill="#1d1433" opacity="0.08"/><circle cx="240" cy="174" r="2" fill="#1d1433" opacity="0.08"/><circle cx="240" cy="196" r="2" fill="#1d1433" opacity="0.08"/><circle cx="262" cy="20" r="2" fill="#1d1433" opacity="0.08"/><circle cx="262" cy="42" r="2" fill="#1d1433" opacity="0.08"/><circle cx="262" cy="64" r="2" fill="#1d1433" opacity="0.08"/><circle cx="262" cy="86" r="2" fill="#1d1433" opacity="0.08"/><circle cx="262" cy="108" r="2" fill="#1d1433" opacity="0.08"/><circle cx="262" cy="130" r="2" fill="#1d1433" opacity="0.08"/><circle cx="262" cy="152" r="2" fill="#1d1433" opacity="0.08"/><circle cx="262" cy="174" r="2" fill="#1d1433" opacity="0.08"/><circle cx="262" cy="196" r="2" fill="#1d1433" opacity="0.08"/><circle cx="284" cy="20" r="2" fill="#1d1433" opacity="0.08"/><circle cx="284" cy="42" r="2" fill="#1d1433" opacity="0.08"/><circle cx="284" cy="64" r="2" fill="#1d1433" opacity="0.08"/><circle cx="284" cy="86" r="2" fill="#1d1433" opacity="0.08"/><circle cx="284" cy="108" r="2" fill="#1d1433" opacity="0.08"/><circle cx="284" cy="130" r="2" fill="#1d1433" opacity="0.08"/><circle cx="284" cy="152" r="2" fill="#1d1433" opacity="0.08"/><circle cx="284" cy="174" r="2" fill="#1d1433" opacity="0.08"/><circle cx="284" cy="196" r="2" fill="#1d1433" opacity="0.08"/><circle cx="306" cy="20" r="2" fill="#1d1433" opacity="0.08"/><circle cx="306" cy="42" r="2" fill="#1d1433" opacity="0.08"/><circle cx="306" cy="64" r="2" fill="#1d1433" opacity="0.08"/><circle cx="306" cy="86" r="2" fill="#1d1433" opacity="0.08"/><circle cx="306" cy="108" r="2" fill="#1d1433" opacity="0.08"/><circle cx="306" cy="130" r="2" fill="#1d1433" opacity="0.08"/><circle cx="306" cy="152" r="2" fill="#1d1433" opacity="0.08"/><circle cx="306" cy="174" r="2" fill="#1d1433" opacity="0.08"/><circle cx="306" cy="196" r="2" fill="#1d1433" opacity="0.08"/><circle cx="328" cy="20" r="2" fill="#1d1433" opacity="0.08"/><circle cx="328" cy="42" r="2" fill="#1d1433" opacity="0.08"/><circle cx="328" cy="64" r="2" fill="#1d1433" opacity="0.08"/><circle cx="328" cy="86" r="2" fill="#1d1433" opacity="0.08"/><circle cx="328" cy="108" r="2" fill="#1d1433" opacity="0.08"/><circle cx="328" cy="130" r="2" fill="#1d1433" opacity="0.08"/><circle cx="328" cy="152" r="2" fill="#1d1433" opacity="0.08"/><circle cx="328" cy="174" r="2" fill="#1d1433" opacity="0.08"/><circle cx="328" cy="196" r="2" fill="#1d1433" opacity="0.08"/><rect x="40" y="26" width="250" height="16" rx="4" fill="#5a4d74" stroke="#1d1433" stroke-width="4" stroke-linejoin="round" stroke-linecap="round"/><path d="M100 150 q65 30 130 0" fill="none" stroke="#1d1433" stroke-width="3" stroke-dasharray="4 8" stroke-linecap="round"/><path d="M165 42 L220 140" stroke="#1d1433" stroke-width="6" stroke-linejoin="round" stroke-linecap="round"/><circle cx="222" cy="146" r="24" fill="#ff5b3a" stroke="#1d1433" stroke-width="4" stroke-linejoin="round" stroke-linecap="round"/><circle cx="215" cy="140" r="6" fill="#fffdf8"/><rect x="0" y="178" width="330" height="40" fill="#25d49b" stroke="#1d1433" stroke-width="4" stroke-linejoin="round" stroke-linecap="round"/><circle cx="92" cy="166" r="13" fill="#1d1433"/><circle cx="90" cy="164" r="13" fill="#bfe4ff" stroke="#1d1433" stroke-width="3.5" stroke-linejoin="round" stroke-linecap="round"/><circle cx="90" cy="167.25" r="6.5" fill="#ffc531" stroke="#1d1433" stroke-width="2.5" stroke-linejoin="round" stroke-linecap="round"/><path d="M82.2 161.4 q2.6 -6.5 7.8 -7.8" fill="none" stroke="#fffdf8" stroke-width="3" stroke-linecap="round"/></g>
<rect x="6" y="6" width="310" height="190" rx="18" fill="none" stroke="#1d1433" stroke-width="6"/>
</svg>