<svg xmlns="http://www.w3.org/2000/svg" viewBox="12 12 298 178" width="298" height="178">
<defs><clipPath id="c"><rect x="6" y="6" width="310" height="190" rx="18"/></clipPath></defs>
<rect x="14" y="14" width="310" height="190" rx="18" fill="#1d1433"/>
<rect x="6" y="6" width="310" height="190" rx="18" fill="#bfe4ff"/>
<g clip-path="url(#c)"><rect x="0" y="80" width="330" height="220" fill="#2fae5c" stroke="#1d1433" stroke-width="4" stroke-linejoin="round" stroke-linecap="round"/><rect x="80" y="120" width="250" height="220" fill="#7fdc6a" stroke="#1d1433" stroke-width="4" stroke-linejoin="round" stroke-linecap="round"/><rect x="170" y="155" width="160" height="220" fill="#2fae5c" stroke="#1d1433" stroke-width="4" stroke-linejoin="round" stroke-linecap="round"/><path d="M80 80 q12 20 0 40" fill="none" stroke="#3fa9ff" stroke-width="16"/><path d="M80 80 q12 20 0 40" fill="none" stroke="#fffdf8" stroke-width="4" stroke-dasharray="8 10" stroke-linecap="round"/><path d="M170 120 q12 20 0 35" fill="none" stroke="#3fa9ff" stroke-width="16"/><path d="M170 120 q12 20 0 35" fill="none" stroke="#fffdf8" stroke-width="4" stroke-dasharray="8 10" stroke-linecap="round"/><path d="M250 155 q12 20 0 55" fill="none" stroke="#3fa9ff" stroke-width="16"/><path d="M250 155 q12 20 0 55" fill="none" stroke="#fffdf8" stroke-width="4" stroke-dasharray="8 10" stroke-linecap="round"/><circle cx="122" cy="108" r="12" fill="#1d1433"/><circle cx="120" cy="106" r="12" fill="#bfe4ff" stroke="#1d1433" stroke-width="3.5" stroke-linejoin="round" stroke-linecap="round"/><circle cx="120" cy="109.0" r="6.0" fill="#ffc531" stroke="#1d1433" stroke-width="2.5" stroke-linejoin="round" stroke-linecap="round"/><path d="M112.8 103.6 q2.4000000000000004 -6.0 7.199999999999999 -7.199999999999999" fill="none" stroke="#fffdf8" stroke-width="3" stroke-linecap="round"/><g transform="translate(60 40) scale(0.8)"><path d="M-30 10 q-12 0 -10 -12 q2 -10 14 -8 q4 -14 20 -12 q14 2 16 14 q14 -2 14 10 q0 8 -10 8z" fill="#fffdf8" stroke="#1d1433" stroke-width="5.0" stroke-linejoin="round" stroke-linecap="round"/></g></g>
<rect x="6" y="6" width="310" height="190" rx="18" fill="none" stroke="#1d1433" stroke-width="6"/>
</svg>