<svg xmlns="http://www.w3.org/2000/svg" viewBox="12 12 298 178" width="298" height="178">
<defs><clipPath id="c"><rect x="6" y="6" width="310" height="190" rx="18"/></clipPath></defs>
<rect x="14" y="14" width="310" height="190" rx="18" fill="#1d1433"/>
<rect x="6" y="6" width="310" height="190" rx="18" fill="#bfe4ff"/>
<g clip-path="url(#c)"><g transform="translate(80 170) scale(1.4)"><path d="M-30 10 q-12 0 -10 -12 q2 -10 14 -8 q4 -14 20 -12 q14 2 16 14 q14 -2 14 10 q0 8 -10 8z" fill="#fffdf8" stroke="#1d1433" stroke-width="2.857142857142857" stroke-linejoin="round" stroke-linecap="round"/></g><g transform="translate(260 185) scale(1.2)"><path d="M-30 10 q-12 0 -10 -12 q2 -10 14 -8 q4 -14 20 -12 q14 2 16 14 q14 -2 14 10 q0 8 -10 8z" fill="#fffdf8" stroke="#1d1433" stroke-width="3.3333333333333335" stroke-linejoin="round" stroke-linecap="round"/></g><g transform="translate(250 40) scale(0.8)"><path d="M-30 10 q-12 0 -10 -12 q2 -10 14 -8 q4 -14 20 -12 q14 2 16 14 q14 -2 14 10 q0 8 -10 8z" fill="#fffdf8" stroke="#1d1433" stroke-width="5.0" stroke-linejoin="round" stroke-linecap="round"/></g><rect x="30" y="130" width="70" height="16" rx="5" fill="#ffc531" stroke="#1d1433" stroke-width="4" stroke-linejoin="round" stroke-linecap="round"/><rect x="130" y="100" width="60" height="16" rx="5" fill="#25d49b" stroke="#1d1433" stroke-width="4" stroke-linejoin="round" stroke-linecap="round"/><rect x="220" y="70" width="70" height="16" rx="5" fill="#ff5b3a" stroke="#1d1433" stroke-width="4" stroke-linejoin="round" stroke-linecap="round"/><path d="M85 118 q35 -50 70 -30" fill="none" stroke="#1d1433" stroke-width="3" stroke-dasharray="4 7" stroke-linecap="round"/><circle cx="162" cy="86" r="12" fill="#1d1433"/><circle cx="160" cy="84" r="12" fill="#bfe4ff" stroke="#1d1433" stroke-width="3.5" stroke-linejoin="round" stroke-linecap="round"/><circle cx="160" cy="87.0" r="6.0" fill="#ffc531" stroke="#1d1433" stroke-width="2.5" stroke-linejoin="round" stroke-linecap="round"/><path d="M152.8 81.6 q2.4000000000000004 -6.0 7.199999999999999 -7.199999999999999" fill="none" stroke="#fffdf8" stroke-width="3" stroke-linecap="round"/></g>
<rect x="6" y="6" width="310" height="190" rx="18" fill="none" stroke="#1d1433" stroke-width="6"/>
</svg>