<svg xmlns="http://www.w3.org/2000/svg" viewBox="12 12 298 178" width="298" height="178">
<defs><clipPath id="c"><rect x="6" y="6" width="310" height="190" rx="18"/></clipPath></defs>
<rect x="14" y="14" width="310" height="190" rx="18" fill="#1d1433"/>
<rect x="6" y="6" width="310" height="190" rx="18" fill="#bfe4ff"/>
<g clip-path="url(#c)"><g transform="translate(160 40) scale(0.8)"><path d="M-30 10 q-12 0 -10 -12 q2 -10 14 -8 q4 -14 20 -12 q14 2 16 14 q14 -2 14 10 q0 8 -10 8z" fill="#fffdf8" stroke="#1d1433" stroke-width="5.0" stroke-linejoin="round" stroke-linecap="round"/></g><rect x="0" y="175" width="330" height="40" fill="#7fdc6a" stroke="#1d1433" stroke-width="4" stroke-linejoin="round" stroke-linecap="round"/><g transform="translate(40 170) scale(1.3)"><rect x="-4" y="-2" width="8" height="14" fill="#ff5b3a" stroke="#1d1433" stroke-width="2.3076923076923075" stroke-linejoin="round" stroke-linecap="round"/><path d="M0 -60 l18 26 h-8 l14 20 h-10 l14 18 h-56 l14 -18 h-10 l14 -20 h-8z" fill="#2fae5c" stroke="#1d1433" stroke-width="3.0769230769230766" stroke-linejoin="round" stroke-linecap="round"/></g><g transform="translate(100 178) scale(1.0)"><rect x="-4" y="-2" width="8" height="14" fill="#ff5b3a" stroke="#1d1433" stroke-width="3.0" stroke-linejoin="round" stroke-linecap="round"/><path d="M0 -60 l18 26 h-8 l14 20 h-10 l14 18 h-56 l14 -18 h-10 l14 -20 h-8z" fill="#7fdc6a" stroke="#1d1433" stroke-width="4.0" stroke-linejoin="round" stroke-linecap="round"/></g><g transform="translate(250 172) scale(1.4)"><rect x="-4" y="-2" width="8" height="14" fill="#ff5b3a" stroke="#1d1433" stroke-width="2.142857142857143" stroke-linejoin="round" stroke-linecap="round"/><path d="M0 -60 l18 26 h-8 l14 20 h-10 l14 18 h-56 l14 -18 h-10 l14 -20 h-8z" fill="#2fae5c" stroke="#1d1433" stroke-width="2.857142857142857" stroke-linejoin="round" stroke-linecap="round"/></g><g transform="translate(300 180) scale(0.9)"><rect x="-4" y="-2" width="8" height="14" fill="#ff5b3a" stroke="#1d1433" stroke-width="3.333333333333333" stroke-linejoin="round" stroke-linecap="round"/><path d="M0 -60 l18 26 h-8 l14 20 h-10 l14 18 h-56 l14 -18 h-10 l14 -20 h-8z" fill="#7fdc6a" stroke="#1d1433" stroke-width="4.444444444444445" stroke-linejoin="round" stroke-linecap="round"/></g><g transform="translate(190 180) scale(1.1)"><rect x="-4" y="-2" width="8" height="14" fill="#ff5b3a" stroke="#1d1433" stroke-width="2.727272727272727" stroke-linejoin="round" stroke-linecap="round"/><path d="M0 -60 l18 26 h-8 l14 20 h-10 l14 18 h-56 l14 -18 h-10 l14 -20 h-8z" fill="#2fae5c" stroke="#1d1433" stroke-width="3.6363636363636362" stroke-linejoin="round" stroke-linecap="round"/></g><circle cx="152" cy="170" r="12" fill="#1d1433"/><circle cx="150" cy="168" r="12" fill="#bfe4ff" stroke="#1d1433" stroke-width="3.5" stroke-linejoin="round" stroke-linecap="round"/><circle cx="150" cy="171.0" r="6.0" fill="#ffc531" stroke="#1d1433" stroke-width="2.5" stroke-linejoin="round" stroke-linecap="round"/><path d="M142.8 165.6 q2.4000000000000004 -6.0 7.199999999999999 -7.199999999999999" fill="none" stroke="#fffdf8" stroke-width="3" stroke-linecap="round"/></g>
<rect x="6" y="6" width="310" height="190" rx="18" fill="none" stroke="#1d1433" stroke-width="6"/>
</svg>