<svg xmlns="http://www.w3.org/2000/svg" viewBox="12 12 298 178" width="298" height="178">
<defs><clipPath id="c"><rect x="6" y="6" width="310" height="190" rx="18"/></clipPath></defs>
<rect x="14" y="14" width="310" height="190" rx="18" fill="#1d1433"/>
<rect x="6" y="6" width="310" height="190" rx="18" fill="#2b1f4a"/>
<g clip-path="url(#c)"><polygon points="40.0,34.0 41.6,37.8 45.7,38.1 42.6,40.8 43.5,44.9 40.0,42.7 36.5,44.9 37.4,40.8 34.3,38.1 38.4,37.8" fill="#fffdf8" stroke="#1d1433" stroke-width="2.5" stroke-linejoin="round" stroke-linecap="round"/><polygon points="290.0,43.0 291.9,47.5 296.7,47.8 293.0,51.0 294.1,55.7 290.0,53.1 285.9,55.7 287.0,51.0 283.3,47.8 288.1,47.5" fill="#ffc531" stroke="#1d1433" stroke-width="2.5" stroke-linejoin="round" stroke-linecap="round"/><polygon points="60.0,116.0 61.1,118.5 63.8,118.8 61.7,120.6 62.4,123.2 60.0,121.8 57.6,123.2 58.3,120.6 56.2,118.8 58.9,118.5" fill="#ffc531" stroke="#1d1433" stroke-width="2.5" stroke-linejoin="round" stroke-linecap="round"/><polygon points="270.0,125.0 271.3,128.2 274.8,128.5 272.1,130.7 272.9,134.0 270.0,132.2 267.1,134.0 267.9,130.7 265.2,128.5 268.7,128.2" fill="#fffdf8" stroke="#1d1433" stroke-width="2.5" stroke-linejoin="round" stroke-linecap="round"/><polygon points="110.0,26.0 111.1,28.5 113.8,28.8 111.7,30.6 112.4,33.2 110.0,31.8 107.6,33.2 108.3,30.6 106.2,28.8 108.9,28.5" fill="#fffdf8" stroke="#1d1433" stroke-width="2.5" stroke-linejoin="round" stroke-linecap="round"/><polygon points="230.0,24.0 231.1,26.5 233.8,26.8 231.7,28.6 232.4,31.2 230.0,29.8 227.6,31.2 228.3,28.6 226.2,26.8 228.9,26.5" fill="#fffdf8" stroke="#1d1433" stroke-width="2.5" stroke-linejoin="round" stroke-linecap="round"/><path d="M30 210 L165 80 L300 210z" fill="#7a4cff" stroke="#1d1433" stroke-width="4" stroke-linejoin="round" stroke-linecap="round"/><path d="M140 108 l25 -28 l25 28 l-12 -6 l-13 10 l-13 -10z" fill="#fffdf8" stroke="#1d1433" stroke-width="4" stroke-linejoin="round" stroke-linecap="round"/><path d="M140 64 l-4 -30 l14 12 l15 -20 l15 20 l14 -12 l-4 30z" fill="#ffc531" stroke="#1d1433" stroke-width="4" stroke-linejoin="round" stroke-linecap="round"/><circle cx="165" cy="52" r="4" fill="#ff5b3a" stroke="#1d1433" stroke-width="2.5" stroke-linejoin="round" stroke-linecap="round"/><circle cx="167" cy="172" r="12" fill="#1d1433"/><circle cx="165" cy="170" r="12" fill="#bfe4ff" stroke="#1d1433" stroke-width="3.5" stroke-linejoin="round" stroke-linecap="round"/><circle cx="165" cy="173.0" r="6.0" fill="#ffc531" stroke="#1d1433" stroke-width="2.5" stroke-linejoin="round" stroke-linecap="round"/><path d="M157.8 167.6 q2.4000000000000004 -6.0 7.199999999999999 -7.199999999999999" fill="none" stroke="#fffdf8" stroke-width="3" stroke-linecap="round"/></g>
<rect x="6" y="6" width="310" height="190" rx="18" fill="none" stroke="#1d1433" stroke-width="6"/>
</svg>