<svg xmlns="http://www.w3.org/2000/svg" viewBox="0 0 128 128" width="128" height="128">
<circle cx="67" cy="67" r="56" fill="#1d1433"/>
<circle cx="62" cy="62" r="56" fill="#fffdf8" stroke="#1d1433" stroke-width="4"/>
<circle cx="62" cy="62" r="45" fill="#ff5b3a" stroke="#1d1433" stroke-width="5"/>
<path d="M32 44 A38 38 0 0 1 50 26" fill="none" stroke="#fffdf8" stroke-width="5" stroke-linecap="round" opacity=".85"/>

<path d="M62 20 q4 16 16 26 q14 12 10 30 q-4 22 -26 24 q-22 -2 -26 -22 q-3 -16 8 -28 q2 10 10 12 q-6 -24 8 -42z" fill="#ffc531" stroke="#1d1433" stroke-width="5" stroke-linejoin="round" stroke-linecap="round"/>
<path d="M62 56 q2 10 10 16 q6 6 3 14 q-4 9 -13 9 q-10 0 -13 -9 q-2 -8 4 -14 q1 5 5 6 q-2 -12 4 -22z" fill="#fffdf8" stroke="#1d1433" stroke-width="5" stroke-linejoin="round" stroke-linecap="round"/>
</svg>